<?xml version="1.0" standalone="no"?>
<!DOCTYPE svg PUBLIC "-//W3C//DTD SVG 20010904//EN"
 "http://www.w3.org/TR/2001/REC-SVG-20010904/DTD/svg10.dtd">
<svg version="1.0" xmlns="http://www.w3.org/2000/svg"
 width="500.000000pt" height="500.000000pt" viewBox="0 0 500.000000 500.000000"
 preserveAspectRatio="xMidYMid meet">

<g transform="translate(0.000000,500.000000) scale(0.100000,-0.100000)"
fill="#000000" stroke="none">
<path d="M2347 4489 c-56 -13 -90 -34 -127 -75 -44 -51 -60 -93 -60 -162 0
-188 203 -303 366 -207 182 106 146 379 -57 439 -58 18 -67 18 -122 5z m144
-59 c81 -42 125 -146 99 -233 -17 -57 -83 -122 -139 -137 -99 -26 -212 40
-240 142 -34 122 60 248 186 248 34 0 68 -7 94 -20z"/>
<path d="M2717 4461 c-4 -17 2 -20 47 -26 28 -4 54 -9 57 -11 3 -1 -6 -98 -21
-213 l-26 -211 22 0 c27 0 26 -4 55 237 l22 182 59 -6 c55 -5 58 -5 58 16 0
11 -6 21 -12 21 -7 0 -60 7 -118 15 -135 19 -137 18 -143 -4z"/>
<path d="M1970 4433 c0 -10 9 -52 20 -93 10 -41 16 -78 12 -81 -11 -11 -224
-60 -231 -53 -3 3 -15 42 -26 87 -18 69 -24 83 -43 85 -12 2 -22 0 -22 -5 0
-4 23 -108 52 -230 43 -187 54 -223 69 -223 10 0 20 3 23 8 2 4 -6 52 -20 107
-13 55 -24 105 -24 111 0 16 231 68 240 54 4 -6 17 -56 29 -111 19 -82 26 -99
41 -99 10 0 21 3 23 8 2 4 -19 106 -47 227 -47 200 -54 220 -74 223 -16 2 -22
-2 -22 -15z"/>
<path d="M3046 4433 c-10 -11 -7 -33 7 -38 6 -2 31 -9 53 -15 l41 -10 -44
-183 c-63 -260 -60 -239 -32 -235 21 3 27 18 72 203 28 110 51 201 51 202 1 1
26 -4 56 -12 61 -16 57 -17 62 9 3 20 7 18 -233 79 -14 4 -29 4 -33 0z"/>
<path d="M1444 4288 c-105 -42 -121 -52 -117 -69 6 -23 2 -23 63 1 l51 20 18
-43 c10 -23 45 -111 77 -194 44 -113 63 -153 76 -153 9 0 19 4 22 9 3 5 -28
96 -69 201 -42 106 -74 194 -73 196 2 1 25 12 51 23 34 15 48 26 45 38 -2 9
-7 17 -13 19 -5 1 -65 -20 -131 -48z"/>
<path d="M3321 4123 c-69 -204 -72 -217 -55 -230 9 -7 19 -11 21 -9 2 2 37
101 79 221 74 217 77 235 39 235 -5 0 -43 -98 -84 -217z"/>
<path d="M2240 3814 c-124 -9 -305 -36 -397 -59 -219 -56 -277 -121 -171 -191
170 -114 846 -165 1305 -98 232 33 393 95 401 153 10 71 -150 137 -434 176
-106 15 -582 28 -704 19z m508 -101 l3 -52 42 -3 c42 -3 42 -3 42 -43 l0 -40
-82 -3 -83 -3 0 61 0 60 -170 0 -170 0 0 -60 0 -61 -82 3 -83 3 0 40 c0 40 0
40 43 43 l42 3 0 48 c0 26 3 51 7 55 4 3 115 5 247 4 l241 -3 3 -52z"/>
<path d="M1620 3505 c0 -33 2 -34 78 -63 77 -30 204 -59 362 -84 58 -9 196
-13 440 -13 244 0 382 4 440 13 158 25 285 54 363 84 75 29 77 30 77 63 l0 33
-74 -29 c-85 -33 -276 -73 -425 -89 -57 -6 -229 -11 -381 -11 -152 0 -324 5
-381 11 -149 16 -340 56 -425 89 l-74 29 0 -33z"/>
<path d="M1646 3328 c2 -24 36 -400 74 -837 60 -678 72 -797 87 -813 49 -54
267 -131 448 -159 103 -16 387 -16 490 0 181 28 399 105 448 159 15 16 28 142
91 853 41 459 72 835 71 837 -2 2 -34 -8 -72 -21 -75 -27 -218 -59 -358 -79
-124 -18 -726 -18 -855 0 -125 18 -292 55 -360 81 -30 12 -58 21 -62 21 -4 0
-5 -19 -2 -42z m175 -90 l58 -12 6 -50 c8 -74 95 -1433 95 -1484 l0 -43 -62
33 c-57 30 -63 36 -66 68 -23 232 -105 1500 -98 1500 5 0 36 -5 67 -12z m1432
-20 c-2 -18 -26 -359 -53 -758 -28 -399 -53 -730 -55 -737 -2 -7 -31 -26 -65
-43 l-60 -30 0 42 c0 51 87 1411 95 1484 l6 51 47 10 c84 18 88 17 85 -19z
m-1088 -38 c63 -1 58 53 85 -806 14 -432 22 -788 19 -790 -8 -5 -110 23 -119
33 -4 4 -17 296 -29 648 -12 352 -24 705 -28 784 l-6 144 24 -6 c13 -4 38 -7
54 -7z m742 -132 c-4 -79 -16 -431 -28 -783 -12 -352 -25 -644 -29 -648 -9
-10 -111 -38 -119 -33 -9 6 43 1573 52 1582 7 7 61 17 116 23 12 1 13 -23 8
-141z m-339 -685 l-3 -808 -65 0 -65 0 -3 808 -2 807 70 0 70 0 -2 -807z"/>
<path d="M926 3229 c-4 -9 -31 -85 -60 -170 -40 -119 -56 -153 -68 -151 -9 1
-19 -2 -23 -8 -3 -5 -21 -10 -39 -10 -24 0 -38 -7 -54 -30 -29 -39 -50 -39
-23 -1 l21 29 -37 -3 c-21 -1 -51 -6 -68 -10 -81 -19 -82 -23 -20 -53 25 -12
45 -26 45 -32 0 -6 6 -10 13 -8 17 4 107 -32 107 -43 0 -5 3 -8 8 -7 4 1 16
-1 28 -5 l20 -7 -23 -103 c-13 -56 -24 -122 -26 -147 -1 -25 -5 -47 -8 -50 -6
-5 -19 -110 -14 -110 2 0 13 19 24 41 12 23 36 61 54 85 18 24 58 80 90 124
33 44 62 80 66 80 4 0 20 -17 36 -38 39 -49 201 -202 214 -202 6 0 6 11 0 33
-30 99 -72 255 -76 277 -3 21 5 31 49 60 124 81 203 144 186 148 -10 2 -18 8
-18 14 0 7 -4 7 -13 0 -7 -6 -67 -15 -132 -19 -66 -4 -103 -9 -82 -11 20 -2
37 -7 37 -11 0 -29 -44 -179 -57 -193 -8 -9 -12 -21 -9 -27 4 -6 2 -40 -5 -77
-11 -66 -11 -66 -31 -46 -17 17 -18 23 -8 43 7 13 14 41 16 63 1 23 14 81 29
130 14 49 24 91 21 93 -2 2 -18 -24 -34 -59 -23 -47 -31 -57 -31 -38 -1 14 6
47 14 74 19 64 19 87 0 80 -16 -6 -20 12 -16 71 1 21 -1 26 -7 16 -7 -10 -13
-4 -22 23 -6 20 -10 42 -8 48 3 7 -2 19 -10 27 -9 9 -12 26 -9 47 4 25 2 32
-8 28 -8 -3 -17 6 -23 23 -7 22 -11 24 -16 12z m17 -80 c-7 -17 -9 -38 -6 -47
4 -14 3 -14 -5 -3 -8 11 -15 5 -31 -27 -12 -23 -19 -42 -16 -42 2 0 12 14 20
31 27 52 27 26 1 -42 -94 -241 -115 -284 -138 -281 -12 1 -23 4 -26 6 -2 2 9
28 25 58 37 71 38 72 22 63 -8 -5 -11 -4 -6 1 5 5 10 7 11 4 4 -8 36 27 36 38
0 6 11 33 26 61 14 28 23 55 19 60 -5 9 27 116 47 155 7 13 13 15 21 7 8 -8 8
-19 0 -42z m-34 -201 c-39 -77 -68 -142 -66 -144 2 -2 27 43 57 101 29 58 54
105 56 105 6 0 -106 -293 -125 -327 -24 -43 -95 -243 -89 -249 2 -2 12 20 23
49 10 28 56 147 103 262 46 116 91 232 99 260 l15 49 14 -32 c13 -31 11 -38
-26 -119 -22 -47 -40 -89 -40 -94 0 -4 -22 -54 -49 -111 -27 -57 -68 -145 -92
-196 -36 -78 -45 -90 -52 -74 -15 32 27 211 68 292 20 39 34 74 31 79 -3 4 21
72 53 152 32 79 61 153 65 164 8 19 8 19 17 -3 7 -18 -5 -50 -62 -164z m121
-118 c-7 -30 -22 -81 -32 -114 -28 -86 -18 -88 25 -4 40 79 45 79 23 2 -8 -27
-20 -69 -26 -93 l-12 -44 -30 37 c-21 26 -37 36 -49 33 -18 -5 -18 -4 0 32 44
86 102 214 98 217 -2 3 -25 -41 -50 -96 -26 -55 -49 -100 -51 -100 -3 0 8 36
24 80 16 44 27 87 24 97 -5 14 -4 15 4 4 8 -11 13 -4 23 30 l12 44 14 -35 c13
-29 13 -44 3 -90z m220 73 c0 -5 -5 -15 -10 -23 -8 -12 -10 -11 -10 8 0 12 5
22 10 22 6 0 10 -3 10 -7z m90 3 c0 -2 -7 -6 -15 -10 -8 -3 -15 -1 -15 4 0 6
7 10 15 10 8 0 15 -2 15 -4z m-120 -22 c0 -44 -15 -75 -45 -93 -29 -17 -34
-17 -39 -4 -6 14 9 86 21 106 7 12 63 4 63 -9z m60 -4 c0 -10 -9 -24 -20 -30
-23 -12 -27 -1 -10 31 14 25 30 24 30 -1z m-530 -8 c0 -12 -36 -43 -42 -37 -3
3 -11 -8 -18 -25 -8 -20 -18 -29 -27 -26 -8 4 -20 6 -26 6 -7 1 6 16 27 36 27
23 42 30 47 23 4 -8 9 -4 14 10 6 20 25 30 25 13z m-145 -12 c-8 -13 1 -13 26
0 24 14 24 2 -1 -29 -13 -15 -26 -21 -37 -17 -12 5 -13 10 -5 18 6 6 8 17 5
24 -3 8 0 14 7 14 6 0 8 -4 5 -10z m144 -49 c-19 -46 -40 -63 -53 -43 -5 8 64
105 71 98 2 -2 -5 -27 -18 -55z m-179 41 c0 -14 -11 -21 -26 -15 -21 8 -17 23
6 23 11 0 20 -4 20 -8z m381 -39 c-8 -15 -10 -15 -11 -2 0 17 10 32 18 25 2
-3 -1 -13 -7 -23z m-34 -95 c-14 -35 -31 -81 -38 -103 -13 -39 -79 -148 -85
-142 -2 2 29 74 68 160 72 157 102 204 55 85z m189 -107 c-20 -22 -21 -37 -1
-21 13 11 15 8 16 -21 l1 -34 7 30 7 30 6 -30 c7 -34 -10 -65 -23 -43 -6 9 -9
3 -9 -16 0 -29 0 -29 -21 -10 -13 12 -18 25 -14 39 3 11 8 46 10 77 4 73 16
94 28 49 6 -25 4 -37 -7 -50z m62 -145 c19 -39 11 -48 -21 -22 -19 15 -26 28
-21 40 9 23 26 16 42 -18z"/>
<path d="M1166 2846 c-36 -62 -32 -72 5 -12 17 26 28 50 26 52 -3 3 -16 -15
-31 -40z"/>
<path d="M4107 3097 c-68 -199 -68 -199 -83 -193 -7 3 -16 1 -19 -4 -4 -6 -24
-10 -46 -10 -26 0 -39 -4 -39 -14 0 -7 -11 -21 -25 -30 -23 -15 -24 -15 -19 1
4 10 -4 5 -18 -11 -19 -23 -28 -27 -42 -19 -16 9 -14 12 19 32 20 11 40 19 45
16 4 -3 13 1 19 9 10 11 4 13 -34 11 -26 -2 -49 -6 -52 -9 -4 -3 -18 -6 -32
-6 -14 0 -32 -4 -39 -9 -16 -10 -1 -24 51 -46 20 -8 37 -19 37 -23 0 -4 8 -8
19 -9 30 -2 91 -31 91 -44 0 -6 6 -9 14 -6 8 3 21 0 30 -6 16 -11 16 -18 1
-81 -9 -37 -14 -73 -12 -80 2 -6 8 9 12 34 7 42 195 430 195 402 0 -6 -44
-123 -99 -260 -125 -314 -133 -332 -127 -302 16 79 12 100 -4 25 -11 -49 -19
-106 -20 -125 l0 -35 21 40 c12 22 31 54 42 70 41 59 131 180 150 202 l20 22
84 -89 c88 -94 160 -156 169 -147 3 3 -15 77 -40 164 l-47 158 23 17 c13 9 73
52 133 95 88 63 106 79 87 81 -14 2 -20 8 -15 15 5 9 3 9 -8 0 -8 -6 -68 -15
-134 -20 -66 -4 -103 -9 -82 -11 25 -2 37 -8 34 -15 -2 -7 -10 -37 -17 -67 -7
-30 -20 -71 -28 -90 -16 -38 -52 -93 -58 -88 -1 2 12 56 30 120 33 116 31 144
-5 64 -10 -23 -16 -51 -13 -62 2 -10 -6 -57 -19 -103 l-23 -84 -32 39 c-29 35
-34 37 -52 26 -18 -11 -16 -4 11 50 17 34 47 96 66 138 26 57 36 71 43 60 7
-11 10 -6 10 18 0 19 -4 31 -10 27 -13 -8 -24 39 -15 72 5 22 4 25 -8 15 -12
-10 -16 -8 -21 10 -3 13 -6 34 -6 49 0 14 -5 30 -12 37 -6 6 -11 27 -10 47 1
21 -3 33 -8 30 -6 -3 -14 5 -20 19 -5 14 -11 26 -12 26 -2 0 -25 -64 -51 -143z
m67 87 c3 -8 -1 -28 -9 -44 -8 -16 -12 -37 -9 -47 5 -14 4 -15 -4 -4 -8 11
-13 8 -26 -17 -32 -62 -35 -41 -6 38 17 45 30 83 30 86 0 11 19 2 24 -12z m26
-85 c0 -19 -123 -276 -142 -294 -5 -5 -1 10 10 35 28 61 87 207 103 252 13 38
29 42 29 7z m-106 -170 c-31 -73 -61 -149 -67 -166 -11 -34 -22 -39 -47 -23
-13 8 -10 19 19 72 18 35 54 104 80 153 59 114 64 121 68 109 2 -6 -22 -71
-53 -145z m131 83 c4 -20 -3 -49 -26 -98 -17 -38 -37 -85 -44 -104 -26 -71
-177 -391 -183 -386 -4 4 50 145 162 428 36 92 66 174 66 183 0 25 18 8 25
-23z m3 -157 c-16 -33 -39 -81 -50 -108 -12 -26 -23 -45 -26 -43 -2 3 1 19 8
36 7 17 11 33 8 35 -2 2 -21 -44 -43 -103 -21 -59 -55 -131 -77 -161 -21 -30
-38 -52 -38 -50 0 17 148 323 154 319 6 -4 25 37 70 155 8 20 8 20 16 0 4 -13
-3 -40 -22 -80z m241 34 c-9 -17 -13 -19 -20 -8 -6 10 -9 2 -9 -23 0 -30 -6
-42 -33 -62 -19 -15 -36 -26 -38 -26 -9 0 -7 46 3 88 8 31 16 42 29 42 24 0
24 -4 -6 -48 -14 -20 -25 -41 -25 -47 0 -5 16 14 35 43 20 29 40 50 45 47 6
-4 10 -1 10 4 0 6 5 11 10 11 7 0 7 -7 -1 -21z m86 10 c-6 -9 -45 -8 -45 2 0
4 11 7 25 7 13 0 22 -4 20 -9z m-354 -22 c-10 -9 -11 -8 -5 6 3 10 9 15 12 12
3 -3 0 -11 -7 -18z m289 -22 c-29 -34 -34 -2 -6 34 9 12 12 11 14 -3 2 -9 -2
-23 -8 -31z m-523 7 c-27 -29 -20 -38 9 -11 l25 24 -21 -50 c-26 -62 -36 -73
-52 -57 -9 9 -7 16 6 31 12 13 15 25 9 36 -7 13 -12 9 -26 -20 -18 -37 -23
-40 -47 -25 -12 8 -9 15 20 39 19 17 41 28 48 26 6 -2 12 2 12 10 0 8 7 15 17
15 15 0 15 -1 0 -18z m-132 -2 c-3 -5 -11 -10 -16 -10 -6 0 -7 5 -4 10 3 6 11
10 16 10 6 0 7 -4 4 -10z m-42 -15 c-6 -17 -25 -15 -31 3 -2 7 5 12 17 12 14
0 19 -5 14 -15z m379 -37 c-8 -8 -9 -4 -5 13 4 13 8 18 11 10 2 -7 -1 -18 -6
-23z m170 -183 c-4 -5 -5 -38 -3 -72 3 -66 -1 -73 -30 -47 -17 16 -17 18 3 58
15 29 17 37 5 28 -12 -10 -16 -10 -20 0 -3 7 -6 -2 -6 -19 -1 -36 -11 -42 -31
-18 -14 17 -3 53 30 95 l20 25 -5 -35 c-3 -27 -2 -25 7 10 l12 44 12 -29 c7
-17 9 -34 6 -40z m28 -82 c0 -12 -4 -25 -10 -28 -6 -4 -10 11 -10 37 0 31 3
39 10 28 5 -8 10 -25 10 -37z m10 -68 c1 14 5 10 14 -15 8 -19 12 -37 10 -39
-3 -3 -18 8 -34 24 -24 23 -27 31 -17 43 10 12 13 11 18 -9 6 -21 7 -21 9 -4z"/>
<path d="M4254 2833 c-3 -21 -16 -73 -29 -115 -13 -43 -22 -78 -20 -78 6 0 53
86 59 110 6 20 5 22 -4 10 -9 -12 -11 -10 -6 10 14 69 18 100 13 100 -4 0 -9
-17 -13 -37z"/>
<path d="M1057 2663 c-4 -3 -7 -11 -7 -17 0 -6 5 -5 12 2 6 6 9 14 7 17 -3 3
-9 2 -12 -2z"/>
<path d="M4702 2620 c0 -14 2 -19 5 -12 2 6 2 18 0 25 -3 6 -5 1 -5 -13z"/>
<path d="M363 2505 c0 -44 2 -61 4 -37 2 23 2 59 0 80 -2 20 -4 1 -4 -43z"/>
<path d="M4707 2528 c-3 -23 -2 -49 3 -58 6 -10 9 3 10 43 0 67 -5 74 -13 15z"/>
<path d="M4310 2299 c-17 -30 -6 -34 14 -4 9 14 12 25 7 25 -6 0 -15 -9 -21
-21z"/>
<path d="M4381 2264 c0 -11 3 -14 6 -6 3 7 2 16 -1 19 -3 4 -6 -2 -5 -13z"/>
<path d="M702 2258 c-7 -7 -12 -17 -12 -22 0 -6 5 -3 11 7 16 27 37 20 59 -20
14 -26 19 -30 14 -13 -8 29 -32 60 -49 60 -6 0 -16 -5 -23 -12z"/>
<path d="M4291 2244 c0 -11 3 -14 6 -6 3 7 2 16 -1 19 -3 4 -6 -2 -5 -13z"/>
<path d="M4615 2239 c-3 -4 2 -6 10 -5 21 3 28 13 10 13 -9 0 -18 -4 -20 -8z"/>
<path d="M4381 2214 c0 -11 3 -14 6 -6 3 7 2 16 -1 19 -3 4 -6 -2 -5 -13z"/>
<path d="M4599 2213 c-1 -1 -2 -7 -3 -13 -2 -16 -107 -90 -128 -90 -10 0 -16
-5 -13 -10 9 -14 77 25 133 76 31 27 40 41 29 41 -9 0 -18 -2 -18 -4z"/>
<path d="M682 2185 c0 -16 2 -22 5 -12 2 9 2 23 0 30 -3 6 -5 -1 -5 -18z"/>
<path d="M424 2192 c4 -3 14 -7 22 -8 9 -1 13 0 10 4 -4 3 -14 7 -22 8 -9 1
-13 0 -10 -4z"/>
<path d="M451 2154 c6 -7 16 -11 21 -8 11 7 3 17 -18 20 -12 2 -13 -1 -3 -12z"/>
<path d="M4339 2137 c27 -30 19 -36 -13 -10 -18 15 -18 14 2 -8 12 -14 19 -29
15 -33 -4 -4 -1 -4 8 -1 8 3 16 17 17 32 1 14 -1 23 -5 20 -3 -4 -16 1 -27 10
-15 13 -14 10 3 -10z"/>
<path d="M493 2113 c9 -10 31 -27 49 -37 32 -18 32 -18 -7 17 -41 37 -71 51
-42 20z"/>
<path d="M706 2070 c4 -14 11 -29 16 -35 6 -6 7 -4 2 8 -3 9 0 25 7 35 13 15
12 16 -3 4 -13 -10 -17 -10 -22 0 -3 7 -3 2 0 -12z"/>
<path d="M739 2063 c-13 -16 -12 -17 4 -4 9 7 17 15 17 17 0 8 -8 3 -21 -13z"/>
<path d="M594 2045 c11 -8 24 -15 30 -15 5 0 1 7 -10 15 -10 8 -23 14 -29 14
-5 0 -1 -6 9 -14z"/>
<path d="M4279 1983 c-13 -16 -12 -17 4 -4 9 7 17 15 17 17 0 8 -8 3 -21 -13z"/>
<path d="M4249 1943 c-13 -16 -12 -17 4 -4 16 13 21 21 13 21 -2 0 -10 -8 -17
-17z"/>
<path d="M4195 1905 c-16 -14 -52 -33 -79 -44 -27 -10 -45 -21 -39 -24 13 -8
81 26 123 63 42 35 37 40 -5 5z"/>
<path d="M810 1895 c13 -14 26 -25 28 -25 3 0 -5 11 -18 25 -13 14 -26 25 -28
25 -3 0 5 -11 18 -25z"/>
<path d="M880 1839 c45 -38 115 -68 131 -57 11 8 11 9 -3 5 -9 -3 -18 -3 -20
1 -2 4 -32 21 -68 39 -46 23 -58 26 -40 12z"/>
<path d="M1117 1634 c-59 -85 -105 -158 -103 -163 3 -5 37 -30 75 -56 110 -75
194 -73 266 7 68 74 86 164 49 229 -19 33 -149 139 -169 139 -5 -1 -59 -70
-118 -156z m185 71 c92 -67 105 -126 47 -216 -72 -113 -155 -117 -287 -14 -5
4 180 265 187 265 3 0 27 -16 53 -35z"/>
<path d="M1048 1773 c7 -3 16 -2 19 1 4 3 -2 6 -13 5 -11 0 -14 -3 -6 -6z"/>
<path d="M3742 1688 c-7 -10 22 -58 111 -181 105 -145 123 -165 135 -153 13
13 8 24 -37 86 -60 82 -73 112 -65 146 8 32 50 64 85 64 23 0 38 -14 96 -94
57 -78 72 -92 86 -85 15 9 12 17 -26 71 -77 111 -115 148 -150 148 -45 0 -95
-33 -103 -67 -12 -58 -14 -57 -62 10 -26 36 -50 66 -53 67 -4 0 -11 -6 -17
-12z"/>
<path d="M1790 1613 c0 -21 33 -49 97 -82 311 -158 888 -162 1208 -6 86 41
118 67 114 89 -4 14 -9 13 -43 -10 -148 -101 -452 -163 -741 -151 -257 11
-461 65 -608 162 -26 17 -27 17 -27 -2z"/>
<path d="M3660 1504 c-72 -31 -99 -77 -75 -123 22 -43 68 -53 134 -30 73 26
119 -28 67 -79 -22 -22 -35 -27 -76 -26 -41 0 -50 -3 -50 -17 0 -33 90 -28
139 9 61 45 65 103 9 145 -26 19 -29 19 -90 4 -56 -14 -66 -14 -85 -1 -13 8
-23 18 -23 23 0 38 47 71 100 71 20 0 30 5 30 15 0 8 -4 15 -9 15 -5 0 -15 2
-23 5 -7 2 -29 -3 -48 -11z"/>
<path d="M1457 1397 c-58 -130 -58 -132 -47 -162 20 -53 89 -75 154 -49 16 6
17 4 7 -14 -14 -27 -14 -29 5 -36 12 -5 29 23 78 127 59 123 65 146 34 147 -3
0 -23 -36 -44 -81 -39 -82 -80 -129 -115 -129 -31 0 -79 29 -80 48 -2 32 3 47
46 139 40 86 42 94 26 103 -16 8 -24 -4 -64 -93z"/>
<path d="M3380 1379 c-35 -14 -80 -59 -80 -81 0 -26 24 -22 40 7 16 29 73 58
100 50 21 -7 33 -34 25 -56 -3 -8 -25 -27 -50 -43 -83 -52 -98 -105 -45 -158
26 -25 36 -29 62 -24 44 9 77 32 88 62 9 24 11 24 34 9 20 -13 29 -14 46 -5
27 14 21 34 -10 35 -19 0 -27 13 -57 90 -18 50 -43 98 -54 108 -23 19 -60 21
-99 6z m128 -177 c4 -44 2 -51 -23 -70 -33 -26 -67 -28 -89 -6 -31 30 -20 61
37 103 29 21 56 35 61 31 5 -5 11 -31 14 -58z"/>
<path d="M2840 1340 c-69 -10 -126 -19 -127 -19 -1 -1 0 -8 3 -16 5 -11 18
-13 64 -8 69 7 62 21 85 -167 21 -172 23 -180 46 -180 10 0 19 3 19 8 -1 4
-11 84 -24 177 -13 94 -22 171 -21 173 1 2 20 5 41 8 74 10 84 14 78 29 -7 18
-4 18 -164 -5z"/>
<path d="M1800 1345 c0 -2 -16 -63 -35 -135 -20 -72 -33 -135 -30 -140 16 -27
32 -2 55 83 34 130 85 176 148 131 28 -19 28 -36 -5 -157 -22 -83 -24 -100
-12 -107 19 -13 24 -5 44 75 21 80 41 125 64 142 24 18 66 15 92 -6 l24 -19
-31 -121 c-29 -112 -29 -120 -13 -124 15 -4 21 5 33 47 34 119 48 187 42 211
-12 46 -100 72 -142 40 -27 -20 -31 -19 -42 14 -15 43 -78 61 -129 37 l-35
-17 6 26 c5 21 3 25 -14 25 -11 0 -20 -2 -20 -5z"/>
<path d="M3184 1310 c-12 -4 -30 -21 -41 -36 -20 -27 -21 -27 -27 -6 -8 24
-21 28 -32 11 -9 -16 58 -270 73 -276 25 -10 25 5 4 95 -12 49 -21 99 -21 111
0 30 43 71 75 71 18 0 25 5 25 20 0 21 -19 25 -56 10z"/>
<path d="M2286 1203 c-11 -73 -29 -373 -23 -379 3 -4 13 -4 22 -1 11 5 15 21
15 66 0 33 3 67 6 76 6 14 9 14 30 -6 31 -29 105 -37 139 -15 45 30 65 74 65
146 0 47 -6 74 -20 97 -32 53 -122 65 -169 22 -21 -20 -35 -12 -25 15 4 11 0
16 -14 16 -16 0 -21 -8 -26 -37z m189 -28 c21 -20 25 -34 25 -80 0 -31 -7 -69
-15 -84 -25 -49 -95 -60 -138 -23 -42 37 -41 141 4 188 31 33 91 33 124 -1z"/>
</g>
</svg>
